<svg width="20" height="20" viewBox="0 0 20 20" fill="none" xmlns="http://www.w3.org/2000/svg">
<path d="M12.9583 10.8333C13.5833 10.8333 14.1333 10.4917 14.4167 9.97499L17.4 4.56666C17.7083 4.01666 17.3083 3.33332 16.675 3.33332H4.34167L3.55833 1.66666H0.833332V3.33332H2.5L5.5 9.65832L4.375 11.6917C3.76667 12.8083 4.56667 14.1667 5.83333 14.1667H15.8333V12.5H5.83333L6.75 10.8333H12.9583ZM5.13333 4.99999H15.2583L12.9583 9.16666H7.10833L5.13333 4.99999ZM5.83333 15C4.91667 15 4.175 15.75 4.175 16.6667C4.175 17.5833 4.91667 18.3333 5.83333 18.3333C6.75 18.3333 7.5 17.5833 7.5 16.6667C7.5 15.75 6.75 15 5.83333 15ZM14.1667 15C13.25 15 12.5083 15.75 12.5083 16.6667C12.5083 17.5833 13.25 18.3333 14.1667 18.3333C15.0833 18.3333 15.8333 17.5833 15.8333 16.6667C15.8333 15.75 15.0833 15 14.1667 15Z" fill="white"/>
</svg>
