<svg width="20" height="14" viewBox="0 0 20 14" fill="none" xmlns="http://www.w3.org/2000/svg">
<path d="M7.5 14.5834C7.5 15.1667 7.66667 15.75 8 16.1667L9.16667 15V18.3334H5.83333L6.75 17.4167C6.16667 16.6667 5.83333 15.6667 5.83333 14.5834C5.83333 12.1667 7.66667 10.25 10 10V11.6667C8.58333 11.9167 7.5 13.1667 7.5 14.5834ZM15 10.8334H11.6667V14.1667L12.8333 13C13.1667 13.5 13.3333 14 13.3333 14.5834C13.3333 16.0834 12.25 17.25 10.8333 17.5V19.1667C13.1667 18.9167 15 17 15 14.5834C15 13.5 14.6667 12.5834 14.0833 11.75L15 10.8334ZM16.1667 5.91669C15.5833 3.08335 13.0833 0.916687 10 0.916687C7.58333 0.916687 5.5 2.25002 4.5 4.25002C1.91667 4.50002 0 6.58335 0 9.16669C0 11.6667 1.83333 13.75 4.16667 14.0834C4.25 13.5 4.33333 13 4.5 12.4167C2.91667 12.25 1.66667 10.8334 1.66667 9.16669C1.66667 7.41669 2.91667 6.00002 4.66667 5.83335L5.58333 5.75002L6 4.91669C6.75 3.50002 8.25 2.50002 10 2.50002C12.1667 2.50002 14.0833 4.08335 14.5 6.16669L14.75 7.50002L16 7.58335C17.3333 7.66669 18.3333 8.75002 18.3333 10.0834C18.3333 11.3334 17.4167 12.3334 16.3333 12.5C16.5 13 16.6667 13.5834 16.6667 14.1667C18.5833 13.75 20 12.0834 20 10.0834C20 7.83335 18.25 6.00002 16.1667 5.91669Z" fill="white"/>
</svg>
