<svg width="20" height="20" viewBox="0 0 20 20" fill="none" xmlns="http://www.w3.org/2000/svg">
<path d="M6.9989 12.9572L12.0022 6.29213L13.0015 7.04246L7.99825 13.7075L6.9989 12.9572Z" fill="white"/>
<path d="M7.91687 6.66648C7.22687 6.66648 6.66687 7.22648 6.66687 7.91648C6.66687 8.60649 7.22687 9.16649 7.91687 9.16649C8.6069 9.16649 9.1669 8.60649 9.1669 7.91648C9.1669 7.22648 8.6069 6.66648 7.91687 6.66648Z" fill="white"/>
<path d="M10.8336 12.0832C10.8336 11.3932 11.3936 10.8332 12.0836 10.8332C12.7736 10.8332 13.3336 11.3932 13.3336 12.0832C13.3336 12.7732 12.7736 13.3332 12.0836 13.3332C11.3936 13.3332 10.8336 12.7732 10.8336 12.0832Z" fill="white"/>
<path fill-rule="evenodd" clip-rule="evenodd" d="M11.9567 1.77083C12.0759 1.70999 12.2211 1.66166 12.3555 1.66666C12.4898 1.67166 12.6148 1.72604 12.7293 1.79687C12.8545 1.8752 12.9848 2.00041 13.0533 2.13541L14.0752 4.14062L16.2684 4.58333C16.6872 4.66583 16.9513 5.05312 16.8915 5.49479L16.5924 7.76041L18.1128 9.45308C18.4054 9.77724 18.4094 10.279 18.1128 10.5989L16.5924 12.2396L16.8915 14.5312C16.9458 14.9729 16.6381 15.3921 16.2186 15.4687L14.0752 15.8593L13.0035 17.8907C12.8599 18.1664 12.5896 18.3333 12.3056 18.3333C12.1884 18.3333 12.0692 18.3127 11.9567 18.2552L10.0127 17.2396L7.9939 18.2292C7.60629 18.4208 7.14651 18.2847 6.94712 17.8907L5.92527 15.8593L3.75693 15.4427C3.33822 15.3602 3.04912 14.9468 3.10893 14.5052L3.40801 12.2396L1.88769 10.5468C1.59499 10.2227 1.591 9.72099 1.88769 9.401L3.40801 7.76041L3.13386 5.46874C3.07962 5.02708 3.36235 4.60791 3.78186 4.53124L5.92527 4.14062L6.99697 2.10937C7.20113 1.71854 7.65932 1.57499 8.04374 1.77083L10.0127 2.76041L11.9567 1.77083ZM9.66376 4.42708L8.01882 3.59374L7.14651 5.28645C7.03086 5.51395 6.83985 5.65895 6.59819 5.70312L4.80372 6.04166L5.05295 7.9427C5.08804 8.1977 5.00011 8.46 4.82864 8.64583L3.55755 9.99999L4.82864 11.3802C5.00091 11.566 5.08804 11.8283 5.05295 12.0833L4.77879 13.9583L6.59819 14.2968C6.84065 14.341 7.03086 14.486 7.14651 14.7135L7.9939 16.4062L9.66376 15.5729C9.77459 15.5162 9.89309 15.4948 10.0127 15.4948C10.1323 15.4948 10.2515 15.5171 10.3616 15.5729L11.9816 16.4062L12.8539 14.7135C12.9696 14.4868 13.1848 14.3418 13.4272 14.2968L15.1968 13.9583L14.9724 12.0833C14.9381 11.8292 15.0011 11.5643 15.1718 11.3802L15.4459 11.0937L16.4429 10.026L15.1718 8.61975C15.0003 8.43566 14.9381 8.19687 14.9724 7.9427L15.2217 6.0677L13.4272 5.70312C13.1848 5.65895 12.9696 5.51395 12.8539 5.28645L11.9816 3.59374L10.3616 4.42708C10.1407 4.53958 9.88468 4.53958 9.66376 4.42708Z" fill="white"/>
</svg>
