<svg width="20" height="20" viewBox="0 0 20 20" fill="none" xmlns="http://www.w3.org/2000/svg">
<path d="M14.8333 4.99999C14.9167 4.74999 15 4.49999 15 4.16666C15 2.74999 13.9167 1.66666 12.5 1.66666C11.4167 1.66666 10.5 2.33332 10.1667 3.33332H9.91667C9.5 2.33332 8.58333 1.66666 7.5 1.66666C6.08333 1.66666 5 2.74999 5 4.16666C5 4.49999 5.08333 4.74999 5.16667 4.99999H1.66667V9.99999H2.5V15.8333C2.5 16.75 3.25 17.5 4.16667 17.5H15.8333C16.75 17.5 17.5 16.75 17.5 15.8333V9.99999H18.3333V4.99999H14.8333ZM12.5 3.33332C13 3.33332 13.3333 3.66666 13.3333 4.16666C13.3333 4.66666 13 4.99999 12.5 4.99999C12 4.99999 11.6667 4.66666 11.6667 4.16666C11.6667 3.66666 12 3.33332 12.5 3.33332ZM7.5 3.33332C8 3.33332 8.33333 3.66666 8.33333 4.16666C8.33333 4.66666 8 4.99999 7.5 4.99999C7 4.99999 6.66667 4.66666 6.66667 4.16666C6.66667 3.66666 7 3.33332 7.5 3.33332ZM9.16667 15.8333H4.16667V9.99999H9.16667V15.8333ZM15.8333 15.8333H10.8333V9.99999H15.8333V15.8333ZM16.6667 8.33332H3.33333V6.66666H16.6667V8.33332Z" fill="white"/>
</svg>
