<svg width="20" height="20" viewBox="0 0 20 20" fill="none" xmlns="http://www.w3.org/2000/svg">
<path d="M12.5 7.5L13.2833 5.775L15 5L13.2833 4.225L12.5 2.5L11.7333 4.225L10 5L11.7333 5.775L12.5 7.5Z" fill="white"/>
<path d="M17.5 6.66667C16.2917 6.66667 15.6167 7.86667 15.8917 8.75833L12.9333 11.725C12.6833 11.65 12.3167 11.65 12.0667 11.725L9.94166 9.6C10.225 8.70833 9.55 7.5 8.33333 7.5C7.125 7.5 6.44166 8.7 6.725 9.6L2.925 13.3917C2.03333 13.1167 0.833332 13.7917 0.833332 15C0.833332 15.9167 1.58333 16.6667 2.5 16.6667C3.70833 16.6667 4.38333 15.4667 4.10833 14.575L7.9 10.775C8.15 10.85 8.51666 10.85 8.76666 10.775L10.8917 12.9C10.6083 13.7917 11.2833 15 12.5 15C13.7083 15 14.3917 13.8 14.1083 12.9L17.075 9.94167C17.9667 10.2167 19.1667 9.54167 19.1667 8.33333C19.1667 7.41667 18.4167 6.66667 17.5 6.66667Z" fill="white"/>
<path d="M3.33333 7.5L2.91667 9.16667L2.5 7.5L0.833332 7.08333L2.5 6.66667L2.91667 5L3.33333 6.66667L5 7.08333L3.33333 7.5Z" fill="white"/>
</svg>
