<svg width="20" height="20" viewBox="0 0 20 20" fill="none" xmlns="http://www.w3.org/2000/svg">
<path d="M16.6667 5.83333H13.3333V4.16667L11.6667 2.5H8.33333L6.66667 4.16667V5.83333H3.33333C2.41667 5.83333 1.66667 6.58333 1.66667 7.5V11.6667C1.66667 12.2917 2 12.8167 2.5 13.1083V15.8333C2.5 16.7583 3.24167 17.5 4.16667 17.5H15.8333C16.7583 17.5 17.5 16.7583 17.5 15.8333V13.1C17.9917 12.8083 18.3333 12.275 18.3333 11.6667V7.5C18.3333 6.58333 17.5833 5.83333 16.6667 5.83333ZM8.33333 4.16667H11.6667V5.83333H8.33333V4.16667ZM3.33333 7.5H16.6667V11.6667H12.5V9.16667H7.5V11.6667H3.33333V7.5ZM10.8333 12.5H9.16667V10.8333H10.8333V12.5ZM15.8333 15.8333H4.16667V13.3333H7.5V14.1667H12.5V13.3333H15.8333V15.8333Z" fill="white"/>
</svg>
