<svg width="20" height="20" viewBox="0 0 20 20" fill="none" xmlns="http://www.w3.org/2000/svg">
<path d="M9.16667 11.8333L7.33333 9.99998L9.16667 8.16665L8 6.99998L5 9.99998L8 13L9.16667 11.8333ZM12 13L15 9.99998L12 6.99998L10.8333 8.16665L12.6667 9.99998L10.8333 11.8333L12 13ZM15.8333 2.49998H12.3333C12 1.49998 11.0833 0.833313 10 0.833313C8.91667 0.833313 8 1.49998 7.66667 2.49998H4.16667C4.08333 2.49998 3.91667 2.49998 3.83333 2.49998C3.5 2.58331 3.25 2.74998 3 2.91665C2.83333 3.16665 2.75 3.33331 2.66667 3.49998C2.58333 3.74998 2.5 3.91665 2.5 4.16665V12.5V13.3333V15.8333C2.5 16.0833 2.58333 16.25 2.66667 16.5C2.75 16.6666 2.91667 16.9166 3 17C3.25 17.25 3.5 17.4166 3.83333 17.4166C3.91667 17.4166 4.08333 17.4166 4.16667 17.4166H15.8333C16.75 17.4166 17.5 16.6666 17.5 15.75V13.25V12.4166V4.16665C17.5 3.24998 16.75 2.49998 15.8333 2.49998ZM10 2.33331C10.3333 2.33331 10.6667 2.58331 10.6667 2.99998C10.6667 3.41665 10.3333 3.58331 10 3.58331C9.66667 3.58331 9.33333 3.33331 9.33333 2.91665C9.33333 2.49998 9.66667 2.33331 10 2.33331ZM15.8333 12.5V13.3333V15.8333H4.16667V13.3333V12.5V4.16665H15.8333V12.5Z" fill="#007AFF"/>
</svg>
