<svg width="20" height="20" viewBox="0 0 20 20" fill="none" xmlns="http://www.w3.org/2000/svg">
<path d="M7.5 9.25001H12.5V10.9167H7.5V9.25001Z" fill="white"/>
<path fill-rule="evenodd" clip-rule="evenodd" d="M15.9167 3.00001L17.0833 4.41667C17.3333 4.66667 17.5 5.08334 17.5 5.50001V15.9167C17.5 16.8333 16.75 17.5833 15.8333 17.5833H4.16667C3.25 17.5833 2.5 16.8333 2.5 15.9167V5.50001C2.5 5.08334 2.66667 4.66667 2.91667 4.41667L4 3.00001C4.25 2.66667 4.58333 2.50001 5 2.50001H14.9167C15.3333 2.50001 15.6667 2.75001 15.9167 3.00001ZM14.75 4.25001H5.16667L4.5 5.08334H15.4167L14.75 4.25001ZM4.16667 15.9167H15.8333V6.75001H4.16667V15.9167Z" fill="white"/>
</svg>
