<svg width="20" height="20" viewBox="0 0 20 20" fill="none" xmlns="http://www.w3.org/2000/svg">
<path d="M16.175 8.68333L14.9917 7.5L12.35 10.1417L11.175 8.95833L10 10.1333L12.35 12.5L16.175 8.68333Z" fill="white"/>
<path d="M4.16667 5.83333H8.33333V7.5H4.16667V5.83333Z" fill="white"/>
<path d="M8.33333 9.16667H4.16667V10.8333H8.33333V9.16667Z" fill="white"/>
<path d="M4.16667 12.5H8.33333V14.1667H4.16667V12.5Z" fill="white"/>
<path fill-rule="evenodd" clip-rule="evenodd" d="M16.6667 2.5H3.33333C2.41667 2.5 1.66667 3.25 1.66667 4.16667V15.8333C1.66667 16.75 2.41667 17.5 3.33333 17.5H16.6667C17.5833 17.5 18.3333 16.75 18.3333 15.8333V4.16667C18.3333 3.25 17.5833 2.5 16.6667 2.5ZM3.33333 15.8333V4.16667H16.6667V15.8333H3.33333Z" fill="white"/>
</svg>
