<svg width="20" height="20" viewBox="0 0 20 20" fill="none" xmlns="http://www.w3.org/2000/svg">
<g clip-path="url(#clip0_1607_1172)">
<path d="M14.5833 10.8333H13.3333V15L16.3417 16.8L16.9667 15.7833L14.5833 14.375V10.8333Z" fill="white"/>
<path fill-rule="evenodd" clip-rule="evenodd" d="M15.0187 8.39478C14.7396 8.35414 14.4542 8.33333 14.1667 8.33333C11.5263 8.33333 9.29545 10.0875 8.57643 12.494C8.41822 13.0239 8.33333 13.5854 8.33333 14.1667C8.33333 15.2379 8.62208 16.2417 9.126 17.1044C10.0676 18.7078 11.7607 19.8263 13.7021 19.9815C13.8555 19.9937 14.0104 20 14.1667 20C14.355 20 14.5423 19.9909 14.7281 19.9729C15.8783 19.8618 16.97 19.4112 17.8636 18.679C18.0119 18.5575 18.1547 18.4282 18.2914 18.2915C18.5039 18.079 18.6983 17.8518 18.8736 17.6124C19.5445 16.6958 19.9361 15.599 19.9928 14.4559C19.9976 14.3598 20 14.2634 20 14.1667C20 13.6318 19.9279 13.1128 19.793 12.6195C19.2612 10.6814 17.7545 9.14673 15.8333 8.57498C15.8262 8.57285 15.8191 8.57071 15.8119 8.56857C15.556 8.49253 15.2903 8.4343 15.0187 8.39478ZM11.2204 11.2204C12.0018 10.439 13.0616 10 14.1667 10C15.2717 10 16.3315 10.439 17.1129 11.2204C17.8943 12.0018 18.3333 13.0616 18.3333 14.1667C18.3333 15.2718 17.8943 16.3315 17.1129 17.1129C16.3315 17.8943 15.2717 18.3333 14.1667 18.3333C13.0616 18.3333 12.0018 17.8943 11.2204 17.1129C10.439 16.3315 10 15.2718 10 14.1667C10 13.0616 10.439 12.0018 11.2204 11.2204Z" fill="white"/>
<path d="M3.33333 2.5H16.6667C17.5833 2.5 18.3333 3.25 18.3333 4.16667V7.92962C17.8192 7.58545 17.26 7.30316 16.6667 7.09343V4.16667H3.33333V15.8333H6.85251C6.98512 16.4177 7.18598 16.9762 7.44627 17.5H3.33333C2.41667 17.5 1.66667 16.75 1.66667 15.8333V4.16667C1.66667 3.25 2.41667 2.5 3.33333 2.5Z" fill="white"/>
<path d="M6.85251 12.5C6.73088 13.036 6.66667 13.5938 6.66667 14.1667H4.16667V12.5H6.85251Z" fill="white"/>
<path d="M8.33333 9.45222C7.98977 9.8768 7.69162 10.3396 7.44627 10.8333H4.16667V9.16667H8.33333V9.45222Z" fill="white"/>
<path d="M8.33333 5.83333H4.16667V7.5H8.33333V5.83333Z" fill="white"/>
</g>
<defs>
<clipPath id="clip0_1607_1172">
<rect width="20" height="20" fill="white"/>
</clipPath>
</defs>
</svg>
