<svg width="40" height="40" viewBox="0 0 40 40" fill="none" xmlns="http://www.w3.org/2000/svg">
<path d="M24.8438 21.9979C24.3781 21.0253 23.6961 20.1769 22.8588 19.5137C23.2469 19.0567 23.5785 18.5482 23.8395 17.9975C24.2723 17.0882 24.5145 16.0711 24.5145 14.9978C24.5145 13.9244 24.2723 12.9073 23.8395 11.998C22.7107 9.63578 20.2929 8 17.4919 8H4.44611V31.9977H18.4938C21.2948 31.9977 23.7149 30.3619 24.8414 27.9973C25.2742 27.088 25.5164 26.0709 25.5164 24.9976C25.5188 23.9242 25.2765 22.9071 24.8438 21.9979ZM8.46074 12.0004H17.4919C19.1546 12.0004 20.5023 13.3432 20.5023 15.0001C20.5023 16.657 19.1546 17.9998 17.4919 17.9998H8.46074V12.0004ZM18.4938 27.9973H8.46074V21.9979H18.4961C20.1589 21.9979 21.5065 23.3407 21.5065 24.9976C21.5042 26.6544 20.1565 27.9973 18.4938 27.9973Z" fill="url(#paint0_linear_1599_854)"/>
<path d="M23.5124 8C22.3223 8 21.1722 8.17108 20.0857 8.49448C21.7367 9.14833 23.0796 10.4091 23.8393 12.0004C23.8393 12.0027 23.8416 12.0051 23.8416 12.0074C28.122 12.1808 31.5393 15.6938 31.5393 19.9988C31.5393 23.9453 28.67 27.2239 24.8976 27.8801C24.446 27.9574 23.9851 27.9996 23.5124 27.9996C22.3929 27.9996 21.3251 27.7699 20.3562 27.3575C18.0913 26.392 16.3627 24.4187 15.7371 22.0002H11.6378C12.0211 24.2828 13.0536 26.3474 14.5376 27.9996C16.1346 29.7783 18.2583 31.079 20.6619 31.6602C21.5768 31.8828 22.5316 32 23.5124 32C30.1634 32 35.5539 26.6286 35.5539 20.0012C35.5539 13.3714 30.1634 8 23.5124 8ZM19.6953 12.9589C19.1473 12.3683 18.3618 11.998 17.4892 11.998H14.5353C13.0513 13.6502 12.0188 15.7149 11.6354 17.9975H15.7347C16.2992 15.8227 17.7573 14.0041 19.6953 12.9589Z" fill="url(#paint1_linear_1599_854)"/>
<defs>
<linearGradient id="paint0_linear_1599_854" x1="4.44611" y1="19.9988" x2="25.5187" y2="19.9988" gradientUnits="userSpaceOnUse">
<stop stop-color="#53AAF1"/>
<stop offset="1" stop-color="#5559DF"/>
</linearGradient>
<linearGradient id="paint1_linear_1599_854" x1="11.6373" y1="19.9988" x2="35.5531" y2="19.9988" gradientUnits="userSpaceOnUse">
<stop stop-color="#6CD583"/>
<stop offset="1" stop-color="#4DCDAA"/>
</linearGradient>
</defs>
</svg>
