<svg width="20" height="20" viewBox="0 0 20 20" fill="none" xmlns="http://www.w3.org/2000/svg">
<path d="M4.28571 2.97617V6.5476L6.85713 8.11904L7.42859 7.26188L5.35714 6.04759V2.97617H4.28571Z" fill="white"/>
<path fill-rule="evenodd" clip-rule="evenodd" d="M5 0.833313C2.21427 0.904724 0 3.11904 0 5.83331C0 8.61904 2.21427 10.8333 5 10.8333C7.78573 10.8333 10 8.61904 10 5.83331C10 3.04758 7.78573 0.833313 5 0.833313ZM5 9.40474C3.00001 9.40474 1.42857 7.8333 1.42857 5.83331C1.42857 3.83332 3.00001 2.26188 5 2.26188C6.99999 2.26188 8.57143 3.83332 8.57143 5.83331C8.57143 7.8333 6.99999 9.40474 5 9.40474Z" fill="white"/>
<path fill-rule="evenodd" clip-rule="evenodd" d="M12.5 5.83331H11.6667C11.6667 5.25781 11.5937 4.69935 11.4566 4.16665H14.1667V5.83331H17.5L20 10.8333V15H18.3333C18.3333 16.4166 17.25 17.5 15.8333 17.5C14.4167 17.5 13.3333 16.4166 13.3333 15H8.33333C8.33333 16.4166 7.25 17.5 5.83333 17.5C4.41667 17.5 3.33333 16.4166 3.33333 15H0V10.243C0.476606 10.783 1.03932 11.2452 1.66667 11.6081V13.3333H4C4.41667 12.8333 5.08333 12.5 5.83333 12.5C6.58333 12.5 7.25 12.8333 7.66667 13.3333H12.5V5.83331ZM5.83333 15.8333C5.33333 15.8333 5 15.5 5 15C5 14.5 5.33333 14.1666 5.83333 14.1666C6.33333 14.1666 6.66667 14.5 6.66667 15C6.66667 15.5 6.33333 15.8333 5.83333 15.8333ZM15.8333 15.8333C15.3333 15.8333 15 15.5 15 15C15 14.5 15.3333 14.1666 15.8333 14.1666C16.3333 14.1666 16.6667 14.5 16.6667 15C16.6667 15.5 16.3333 15.8333 15.8333 15.8333ZM14.1667 10.8333V7.49998H16.6667L18.3333 10.8333H14.1667Z" fill="white"/>
</svg>
