<svg width="20" height="20" viewBox="0 0 20 20" fill="none" xmlns="http://www.w3.org/2000/svg">
<path d="M17.5 4.99998H14.1667V3.33331H1.66667C0.75 3.33331 0 4.08331 0 4.99998V14.1666H3.33333C3.33333 15.5833 4.41667 16.6666 5.83333 16.6666C7.25 16.6666 8.33333 15.5833 8.33333 14.1666H13.3333C13.3333 15.5833 14.4167 16.6666 15.8333 16.6666C17.25 16.6666 18.3333 15.5833 18.3333 14.1666H20V9.99998L17.5 4.99998ZM5.83333 15C5.33333 15 5 14.6666 5 14.1666C5 13.6666 5.33333 13.3333 5.83333 13.3333C6.33333 13.3333 6.66667 13.6666 6.66667 14.1666C6.66667 14.6666 6.33333 15 5.83333 15ZM12.5 12.5H7.66667C7.25 12 6.58333 11.6666 5.83333 11.6666C5.08333 11.6666 4.41667 12 4 12.5H1.66667V4.99998H12.5V12.5ZM15.8333 15C15.3333 15 15 14.6666 15 14.1666C15 13.6666 15.3333 13.3333 15.8333 13.3333C16.3333 13.3333 16.6667 13.6666 16.6667 14.1666C16.6667 14.6666 16.3333 15 15.8333 15ZM14.1667 9.99998V6.66665H16.6667L18.3333 9.99998H14.1667Z" fill="white"/>
</svg>
