<svg width="20" height="20" viewBox="0 0 20 20" fill="none" xmlns="http://www.w3.org/2000/svg">
<path d="M12.5 10H13.75V13.5417L16.1333 14.95L15.5083 15.9667L12.5 14.1667V10ZM13.3333 7.50002C13.9083 7.50002 14.475 7.58335 15 7.74169V3.91669L12.5 4.88335V7.55835C12.775 7.50002 13.05 7.50002 13.3333 7.50002ZM19.1667 13.3334C19.1667 14.8804 18.5521 16.3642 17.4581 17.4581C16.3642 18.5521 14.8804 19.1667 13.3333 19.1667C10.8333 19.1667 8.66667 17.5667 7.85 15.3334L6.66667 14.9167L2.21667 16.6417L2.08333 16.6667C1.97283 16.6667 1.86685 16.6228 1.7887 16.5446C1.71056 16.4665 1.66667 16.3605 1.66667 16.25V3.65002C1.66667 3.45835 1.79167 3.30835 1.96667 3.25002L6.66667 1.66669L11.6667 3.41669L16.1167 1.69169L16.25 1.66669C16.3605 1.66669 16.4665 1.71059 16.5446 1.78873C16.6228 1.86687 16.6667 1.97285 16.6667 2.08335V8.54169C18.175 9.58335 19.1667 11.35 19.1667 13.3334ZM7.5 13.3334C7.5 11.0084 8.85833 9.00002 10.8333 8.05835V4.89169L7.5 3.72502V13.4417C7.5 13.4084 7.5 13.3667 7.5 13.3334ZM13.3333 9.16669C12.2283 9.16669 11.1685 9.60567 10.3871 10.3871C9.60565 11.1685 9.16667 12.2283 9.16667 13.3334C9.16667 14.4384 9.60565 15.4982 10.3871 16.2796C11.1685 17.061 12.2283 17.5 13.3333 17.5C14.4384 17.5 15.4982 17.061 16.2796 16.2796C17.061 15.4982 17.5 14.4384 17.5 13.3334C17.5 12.2283 17.061 11.1685 16.2796 10.3871C15.4982 9.60567 14.4384 9.16669 13.3333 9.16669ZM3.33333 4.55002V14.425L5.83333 13.4584V3.70835L3.33333 4.55002Z" fill="white"/>
</svg>
