<svg width="24" height="24" viewBox="0 0 24 24" fill="none" xmlns="http://www.w3.org/2000/svg">
<path d="M12 20.3333C12.9167 20.3333 13.6667 19.5833 13.6667 18.6667H10.3334C10.3334 19.5833 11.0834 20.3333 12 20.3333ZM17 15.3333V11.1667C17 8.60833 15.6417 6.46667 13.25 5.9V5.33333C13.25 4.64167 12.6917 4.08333 12 4.08333C11.3084 4.08333 10.75 4.64167 10.75 5.33333V5.9C8.36671 6.46667 7.00004 8.6 7.00004 11.1667V15.3333L5.33337 17V17.8333H18.6667V17L17 15.3333ZM15.3334 16.1667H8.66671V11.1667C8.66671 9.1 9.92504 7.41667 12 7.41667C14.075 7.41667 15.3334 9.1 15.3334 11.1667V16.1667Z" fill="#424242"/>
</svg>
