<svg width="20" height="20" viewBox="0 0 20 20" fill="none" xmlns="http://www.w3.org/2000/svg">
<path d="M10 11.6667C7.75 11.6667 3.33333 12.75 3.33333 15V16.6667H16.6667V15C16.6667 12.75 12.25 11.6667 10 11.6667ZM5 15C5.16667 14.5 7.16667 13.5833 9.16667 13.4167L8.33333 15H5ZM11.6667 15L10.8333 13.4167C12.8333 13.6667 14.8333 14.5 15 15H11.6667ZM10 9.99999C11.8333 9.99999 13.3333 8.49999 13.3333 6.66666C13.3333 4.83333 11.8333 3.33333 10 3.33333C8.16667 3.33333 6.66667 4.83333 6.66667 6.66666C6.66667 8.49999 8.16667 9.99999 10 9.99999ZM10 4.99999C10.9167 4.99999 11.6667 5.74999 11.6667 6.66666C11.6667 7.58333 10.9167 8.33333 10 8.33333C9.08333 8.33333 8.33333 7.58333 8.33333 6.66666C8.33333 5.74999 9.08333 4.99999 10 4.99999Z" fill="white"/>
</svg>
