<svg width="20" height="20" viewBox="0 0 20 20" fill="none" xmlns="http://www.w3.org/2000/svg">
<path d="M15.8333 3.33332C15.8333 4.24999 15.0833 4.99999 14.1667 4.99999C13.25 4.99999 12.5 4.24999 12.5 3.33332C12.5 2.41666 13.25 1.66666 14.1667 1.66666C15.0833 1.66666 15.8333 2.41666 15.8333 3.33332ZM17.5 7.49999V13.3333H16.6667V18.3333H15V13.3333H13.3333V18.3333H11.6667V13.3333H10.8333V7.49999C10.8333 6.58332 11.5833 5.83332 12.5 5.83332H15.8333C16.75 5.83332 17.5 6.58332 17.5 7.49999ZM15.8333 11.6667V7.49999H12.5V11.6667H15.8333ZM9.16667 11.6667H6.66667V18.3333H9.16667V11.6667ZM5 15H2.5V18.3333H5V15ZM5 4.16666L6.5 5.66666L2.33333 9.83332L3.5 11L7.66667 6.83332L9.16667 8.33332V4.16666H5Z" fill="white"/>
</svg>
