<svg width="20" height="20" viewBox="0 0 20 20" fill="none" xmlns="http://www.w3.org/2000/svg">
<path d="M18.0917 7.25834C19.1333 6.21667 18.6583 5.00001 18.0917 4.40834L15.5917 1.90834C14.5417 0.866674 13.3333 1.34167 12.7417 1.90834L11.325 3.33334H9.16667C7.58333 3.33334 6.66667 4.16667 6.2 5.12501L2.5 8.82501V12.1583L1.90833 12.7417C0.866666 13.7917 1.34167 15 1.90833 15.5917L4.40833 18.0917C4.85833 18.5417 5.34167 18.7083 5.8 18.7083C6.39167 18.7083 6.93333 18.4167 7.25833 18.0917L9.50833 15.8333H12.5C13.9167 15.8333 14.6333 14.95 14.8917 14.0833C15.8333 13.8333 16.35 13.1167 16.5583 12.4167C17.85 12.0833 18.3333 10.8583 18.3333 10V7.50001H17.8417L18.0917 7.25834ZM16.6667 10C16.6667 10.375 16.5083 10.8333 15.8333 10.8333H15V11.6667C15 12.0417 14.8417 12.5 14.1667 12.5H13.3333V13.3333C13.3333 13.7083 13.175 14.1667 12.5 14.1667H8.825L6.09167 16.9C5.83333 17.1417 5.68333 17 5.59167 16.9083L3.1 14.425C2.85833 14.1667 3 14.0167 3.09167 13.925L4.16667 12.8417V9.50834L5.83333 7.84167V9.16667C5.83333 10.175 6.5 11.6667 8.33333 11.6667C10.1667 11.6667 10.8333 10.175 10.8333 9.16667H16.6667V10ZM16.9083 6.07501L15.4917 7.50001H9.16667V9.16667C9.16667 9.54167 9.00833 10 8.33333 10C7.65833 10 7.5 9.54167 7.5 9.16667V6.66667C7.5 6.28334 7.64167 5.00001 9.16667 5.00001H12.0083L13.9083 3.10001C14.1667 2.85834 14.3167 3.00001 14.4083 3.09167L16.9 5.57501C17.1417 5.83334 17 5.98334 16.9083 6.07501Z" fill="white"/>
</svg>
