<svg width="16" height="16" viewBox="0 0 16 16" fill="none" xmlns="http://www.w3.org/2000/svg">
<path d="M7.33333 12H8.66666V10.6667H7.33333V12ZM8 1.33333C4.31999 1.33333 1.33333 4.31999 1.33333 8C1.33333 11.68 4.31999 14.6667 8 14.6667C11.68 14.6667 14.6667 11.68 14.6667 8C14.6667 4.31999 11.68 1.33333 8 1.33333ZM8 13.3333C5.06 13.3333 2.66666 10.94 2.66666 8C2.66666 5.06 5.06 2.66666 8 2.66666C10.94 2.66666 13.3333 5.06 13.3333 8C13.3333 10.94 10.94 13.3333 8 13.3333ZM8 3.99999C6.52666 3.99999 5.33333 5.19333 5.33333 6.66666H6.66666C6.66666 5.93333 7.26666 5.33333 8 5.33333C8.73333 5.33333 9.33333 5.93333 9.33333 6.66666C9.33333 8 7.33333 7.83333 7.33333 10H8.66666C8.66666 8.5 10.6667 8.33333 10.6667 6.66666C10.6667 5.19333 9.47333 3.99999 8 3.99999Z" fill="#9E9E9E"/>
</svg>
