<svg width="32" height="32" viewBox="0 0 32 32" fill="none" xmlns="http://www.w3.org/2000/svg">
<path fill-rule="evenodd" clip-rule="evenodd" d="M16 0C7.16344 0 0 7.16344 0 16C0 24.8366 7.16344 32 16 32C24.8366 32 32 24.8366 32 16C32 7.16344 24.8366 0 16 0ZM7.67557 20.006C8.4409 20.762 9.49557 21.14 10.8396 21.14C12.1742 21.14 13.2196 20.762 13.9756 20.006C14.7409 19.25 15.1236 18.158 15.1236 16.73V11.2H13.3316V16.66C13.3316 17.668 13.1169 18.4007 12.6876 18.858C12.2582 19.3153 11.6469 19.544 10.8536 19.544C10.0602 19.544 9.44424 19.3153 9.00557 18.858C8.57624 18.4007 8.36157 17.668 8.36157 16.66V11.2H6.54157V16.73C6.54157 18.158 6.91957 19.25 7.67557 20.006ZM17.6724 11.2V21H19.4784V14.365L24.8824 21H26.3804V11.2H24.5744V17.835L19.1704 11.2H17.6724Z" fill="#007AFF"/>
</svg>
