<svg width="20" height="20" viewBox="0 0 20 20" fill="none" xmlns="http://www.w3.org/2000/svg">
<path d="M5 15.8333H6.66667V17.5H5V15.8333ZM10 2.5L1.66667 6.66667V17.5H3.33333V10.8333H16.6667V17.5H18.3333V6.66667L10 2.5ZM6.66667 9.16667H3.33333V7.5H6.66667V9.16667ZM11.6667 9.16667H8.33333V7.5H11.6667V9.16667ZM16.6667 9.16667H13.3333V7.5H16.6667V9.16667ZM5 12.5H6.66667V14.1667H5V12.5ZM8.33333 12.5H10V14.1667H8.33333V12.5ZM8.33333 15.8333H10V17.5H8.33333V15.8333ZM11.6667 15.8333H13.3333V17.5H11.6667V15.8333Z" fill="white"/>
</svg>
